<svg width="199" height="53" viewBox="0 0 199 53" fill="none" xmlns="http://www.w3.org/2000/svg">
<rect x="3" y="27" width="156" height="22" fill="white"/>
<path d="M12.9852 23H5.72521V20.63H8.03521V4.37H5.72521V2H12.3852V4.37H10.5252V10.22C10.5252 10.38 10.5152 10.54 10.4952 10.7C10.4752 10.86 10.4552 11.02 10.4352 11.18L11.0052 10.49L17.4252 4.37H16.3152V2H22.9752V4.37H20.4852L14.0352 10.52C15.3752 12.22 16.7052 13.91 18.0252 15.59C19.3652 17.25 20.7052 18.93 22.0452 20.63H24.2052V23H17.5452V20.63H19.1052C17.9652 19.21 16.8352 17.8 15.7152 16.4C14.6152 14.98 13.5052 13.55 12.3852 12.11L10.5252 13.88V20.63H12.9852V23ZM32.9516 23H26.2916V20.63H28.5716V2.87H26.2916V0.499998H31.0616V13.28L30.9716 14.63C31.4116 13.65 32.0516 12.9 32.8916 12.38C33.7316 11.84 34.7216 11.54 35.8616 11.48C37.0416 11.48 37.9716 11.79 38.6516 12.41C39.3316 13.03 39.6916 13.84 39.7316 14.84V20.63H41.5916V23H34.9316V20.63H37.2416V15.98C37.2016 15.44 37.0016 14.98 36.6416 14.6C36.3016 14.2 35.7516 13.98 34.9916 13.94C34.4716 13.94 33.9716 14.03 33.4916 14.21C33.0316 14.39 32.6216 14.64 32.2616 14.96C31.9016 15.28 31.6116 15.66 31.3916 16.1C31.1716 16.54 31.0616 17.02 31.0616 17.54V20.63H32.9516V23ZM54.434 20.12C54.034 21.08 53.384 21.85 52.484 22.43C51.604 22.99 50.624 23.27 49.544 23.27C48.364 23.27 47.434 22.96 46.754 22.34C46.074 21.72 45.714 20.91 45.674 19.91V14.12H43.694V11.75H48.164V18.77C48.204 19.31 48.394 19.78 48.734 20.18C49.094 20.56 49.654 20.77 50.414 20.81C50.934 20.81 51.424 20.72 51.884 20.54C52.364 20.36 52.784 20.11 53.144 19.79C53.504 19.47 53.794 19.09 54.014 18.65C54.234 18.21 54.344 17.73 54.344 17.21V14.12H52.364V11.75H56.834V20.9H58.694V23H54.344V21.47L54.434 20.12ZM67.4633 23H60.8033V20.63H63.0833V14.12H61.1033V11.75H65.2733V12.02C65.3133 12.5 65.3433 12.94 65.3633 13.34C65.4033 13.72 65.4433 14.15 65.4833 14.63C65.9033 13.67 66.5333 12.92 67.3733 12.38C68.2333 11.82 69.2333 11.52 70.3733 11.48C71.4733 11.48 72.3533 11.76 73.0133 12.32C73.6933 12.86 74.0933 13.58 74.2133 14.48C74.6533 13.56 75.2933 12.84 76.1333 12.32C76.9733 11.8 77.9433 11.52 79.0433 11.48C80.2233 11.48 81.1533 11.79 81.8333 12.41C82.5133 13.03 82.8733 13.84 82.9133 14.84V20.63H84.8033V23H78.1433V20.63H80.4233V15.98C80.3833 15.44 80.1833 14.98 79.8233 14.6C79.4833 14.2 78.9333 13.98 78.1733 13.94C77.6533 13.94 77.1533 14.03 76.6733 14.21C76.2133 14.39 75.8033 14.64 75.4433 14.96C75.0833 15.28 74.7933 15.66 74.5733 16.1C74.3533 16.54 74.2433 17.02 74.2433 17.54V20.63H76.1333V23H69.4733V20.63H71.7533V15.98C71.7133 15.44 71.5133 14.98 71.1533 14.6C70.8133 14.2 70.2633 13.98 69.5033 13.94C68.9833 13.94 68.4833 14.03 68.0033 14.21C67.5433 14.39 67.1333 14.64 66.7733 14.96C66.4133 15.28 66.1233 15.66 65.9033 16.1C65.6833 16.54 65.5733 17.02 65.5733 17.54V20.63H67.4633V23ZM103.161 23H95.901V20.63H98.511V4.37H95.901V2H99.261C100.981 4.22 102.681 6.44 104.361 8.66C106.061 10.86 107.771 13.07 109.491 15.29C111.211 13.07 112.911 10.86 114.591 8.66C116.291 6.44 118.001 4.22 119.721 2H123.081V4.37H120.471V20.63H123.081V23H115.821V20.63H117.981V8.9C118.001 8.74 118.011 8.58 118.011 8.42C118.031 8.26 118.051 8.1 118.071 7.94C117.911 8.16 117.751 8.39 117.591 8.63C117.431 8.87 117.271 9.1 117.111 9.32L109.491 19.25L101.541 8.84C101.401 8.66 101.281 8.51 101.181 8.39C101.101 8.27 101.011 8.12 100.911 7.94C100.931 8.1 100.951 8.26 100.971 8.42C100.991 8.58 101.001 8.74 101.001 8.9V20.63H103.161V23ZM135.909 20.12C135.509 21.08 134.859 21.85 133.959 22.43C133.079 22.99 132.099 23.27 131.019 23.27C129.839 23.27 128.909 22.96 128.229 22.34C127.549 21.72 127.189 20.91 127.149 19.91V14.12H125.169V11.75H129.639V18.77C129.679 19.31 129.869 19.78 130.209 20.18C130.569 20.56 131.129 20.77 131.889 20.81C132.409 20.81 132.899 20.72 133.359 20.54C133.839 20.36 134.259 20.11 134.619 19.79C134.979 19.47 135.269 19.09 135.489 18.65C135.709 18.21 135.819 17.73 135.819 17.21V14.12H133.839V11.75H138.309V20.9H140.169V23H135.819V21.47L135.909 20.12ZM156.588 23H152.118V22.4C152.118 22.26 152.118 22.16 152.118 22.1C152.118 22.04 152.118 21.94 152.118 21.8C152.098 21.86 151.998 21.97 151.818 22.13C151.638 22.29 151.388 22.45 151.068 22.61C150.728 22.79 150.328 22.94 149.868 23.06C149.408 23.2 148.888 23.27 148.308 23.27C147.468 23.27 146.678 23.12 145.938 22.82C145.198 22.5 144.558 22.07 144.018 21.53C143.478 20.99 143.048 20.37 142.728 19.67C142.428 18.95 142.278 18.19 142.278 17.39C142.278 16.61 142.428 15.86 142.728 15.14C143.048 14.42 143.478 13.79 144.018 13.25C144.558 12.71 145.198 12.28 145.938 11.96C146.678 11.64 147.468 11.48 148.308 11.48C149.408 11.48 150.278 11.68 150.918 12.08C151.558 12.46 151.958 12.82 152.118 13.16C152.138 12.96 152.158 12.74 152.178 12.5C152.218 12.24 152.238 11.99 152.238 11.75H154.308V20.63H156.588V23ZM148.308 13.91C147.768 13.91 147.268 14.01 146.808 14.21C146.348 14.39 145.968 14.65 145.668 14.99C145.388 15.29 145.168 15.64 145.008 16.04C144.868 16.44 144.798 16.88 144.798 17.36C144.798 17.92 144.908 18.44 145.128 18.92C145.368 19.4 145.688 19.8 146.088 20.12C146.368 20.34 146.698 20.52 147.078 20.66C147.458 20.78 147.868 20.84 148.308 20.84C148.808 20.84 149.258 20.76 149.658 20.6C150.078 20.44 150.438 20.22 150.738 19.94C151.078 19.62 151.338 19.24 151.518 18.8C151.718 18.36 151.818 17.88 151.818 17.36C151.818 16.84 151.718 16.36 151.518 15.92C151.338 15.48 151.088 15.11 150.768 14.81C150.448 14.53 150.078 14.31 149.658 14.15C149.258 13.99 148.808 13.91 148.308 13.91ZM165.344 23H158.684V20.63H160.964V14.12H158.984V11.75H163.154V12.02C163.194 12.5 163.224 12.94 163.244 13.34C163.284 13.72 163.324 14.15 163.364 14.63C163.764 13.67 164.404 12.91 165.284 12.35C166.184 11.77 167.174 11.48 168.254 11.48C169.434 11.48 170.364 11.79 171.044 12.41C171.724 13.03 172.084 13.84 172.124 14.84V20.63H173.984V23H167.324V20.63H169.634V15.98C169.594 15.44 169.394 14.98 169.034 14.6C168.694 14.2 168.144 13.98 167.384 13.94C166.864 13.94 166.364 14.03 165.884 14.21C165.424 14.39 165.014 14.64 164.654 14.96C164.294 15.28 164.004 15.66 163.784 16.1C163.564 16.54 163.454 17.02 163.454 17.54V20.63H165.344V23ZM177.377 28.7L179.027 26.66C179.427 26.96 179.887 27.24 180.407 27.5C180.947 27.78 181.507 27.92 182.087 27.92C182.607 27.92 183.077 27.83 183.497 27.65C183.937 27.47 184.317 27.22 184.637 26.9C184.957 26.6 185.197 26.23 185.357 25.79C185.537 25.37 185.627 24.91 185.627 24.41V22.64C185.627 22.6 185.627 22.51 185.627 22.37C185.647 22.23 185.677 22.1 185.717 21.98C185.657 22.08 185.537 22.2 185.357 22.34C185.177 22.46 184.967 22.58 184.727 22.7C184.407 22.86 184.027 22.99 183.587 23.09C183.147 23.19 182.657 23.24 182.117 23.24C181.277 23.24 180.487 23.09 179.747 22.79C179.007 22.47 178.367 22.04 177.827 21.5C177.287 20.98 176.857 20.37 176.537 19.67C176.237 18.95 176.087 18.19 176.087 17.39C176.087 16.61 176.237 15.86 176.537 15.14C176.857 14.42 177.287 13.79 177.827 13.25C178.367 12.71 179.007 12.28 179.747 11.96C180.487 11.64 181.277 11.48 182.117 11.48C183.077 11.48 183.887 11.67 184.547 12.05C185.227 12.41 185.687 12.78 185.927 13.16C185.927 12.94 185.937 12.72 185.957 12.5C185.977 12.28 186.007 12.03 186.047 11.75H190.397V14.12H188.117V24.8C188.117 25.6 187.957 26.34 187.637 27.02C187.337 27.72 186.917 28.32 186.377 28.82C185.837 29.34 185.207 29.75 184.487 30.05C183.767 30.35 182.987 30.5 182.147 30.5C181.247 30.5 180.377 30.3 179.537 29.9C178.697 29.52 177.977 29.12 177.377 28.7ZM182.117 13.91C181.557 13.91 181.047 14.01 180.587 14.21C180.127 14.41 179.747 14.68 179.447 15.02C179.167 15.32 178.957 15.67 178.817 16.07C178.677 16.47 178.607 16.9 178.607 17.36C178.607 17.88 178.697 18.36 178.877 18.8C179.077 19.24 179.337 19.62 179.657 19.94C179.977 20.22 180.337 20.44 180.737 20.6C181.157 20.76 181.617 20.84 182.117 20.84C182.657 20.84 183.147 20.75 183.587 20.57C184.027 20.37 184.397 20.11 184.697 19.79C184.997 19.49 185.227 19.13 185.387 18.71C185.547 18.29 185.627 17.84 185.627 17.36C185.627 16.8 185.517 16.3 185.297 15.86C185.097 15.4 184.817 15.01 184.457 14.69C184.157 14.45 183.807 14.26 183.407 14.12C183.007 13.98 182.577 13.91 182.117 13.91Z" fill="white"/>
<g filter="url(#filter0_d_195_2)">
<path d="M4.89521 32.34C4.89521 31.7667 5.31521 31.48 6.15521 31.48C6.51521 31.48 7.20188 31.4933 8.21521 31.52C9.33521 31.5733 10.1819 31.6 10.7552 31.6C11.2219 31.6 11.7885 31.5733 12.4552 31.52C12.9085 31.4933 13.1952 31.48 13.3152 31.48C14.0485 31.5067 14.6685 31.64 15.1752 31.88C15.3219 31.9467 15.4419 32.0267 15.5352 32.12C15.6285 32.2133 15.6752 32.3667 15.6752 32.58C15.6752 32.8733 15.5819 33.1267 15.3952 33.34C15.2085 33.54 14.9819 33.64 14.7152 33.64C14.4219 33.64 13.9952 33.6 13.4352 33.52C12.9419 33.4267 12.5085 33.38 12.1352 33.38C11.7752 33.38 11.5019 33.3867 11.3152 33.4C11.2752 33.84 11.2552 34.8933 11.2552 36.56C11.2552 38.5467 11.3152 40.56 11.4352 42.6L11.4752 43.18C11.4752 43.7267 11.1619 44 10.5352 44C10.0419 44 9.70855 43.8867 9.53521 43.66C9.36188 43.42 9.27521 43.06 9.27521 42.58C9.27521 41.6333 9.24855 40.4533 9.19521 39.04C9.14188 37.8667 9.11521 37.0333 9.11521 36.54C9.11521 36.2067 9.15521 35.1867 9.23521 33.48L6.89521 33.5C6.14855 33.5 5.62855 33.4333 5.33521 33.3C5.04188 33.1533 4.89521 32.8333 4.89521 32.34ZM18.4608 43.2C18.4608 43.4267 18.3742 43.6267 18.2008 43.8C18.0275 43.9733 17.8142 44.06 17.5608 44.06C17.1608 44.06 16.8675 43.9867 16.6808 43.84C16.4942 43.68 16.4008 43.3933 16.4008 42.98C16.4008 42.4867 16.3875 41.84 16.3608 41.04C16.3342 40.3733 16.3208 39.8133 16.3208 39.36C16.3208 39.1467 16.3342 38.8667 16.3608 38.52C16.3875 38.2 16.4008 37.96 16.4008 37.8C16.3608 37.5467 16.2608 37.34 16.1008 37.18C15.9408 37.0067 15.7342 36.92 15.4808 36.92C15.3608 36.92 15.2608 36.8667 15.1808 36.76C15.1008 36.64 15.0608 36.52 15.0608 36.4C15.0608 36.0933 15.1808 35.86 15.4208 35.7C15.6742 35.54 15.9742 35.46 16.3208 35.46C17.0408 35.46 17.5408 35.8867 17.8208 36.74C18.1675 36.34 18.5608 36.02 19.0008 35.78C19.4542 35.5267 19.8875 35.4 20.3008 35.4C20.7942 35.4 21.2408 35.5333 21.6408 35.8C22.0542 36.0667 22.2608 36.4267 22.2608 36.88C22.2608 37.1333 22.1475 37.3933 21.9208 37.66C21.7075 37.9267 21.4875 38.06 21.2608 38.06C21.1408 38.06 21.0342 38.0333 20.9408 37.98C20.8608 37.9133 20.7608 37.82 20.6408 37.7C20.5075 37.5667 20.3942 37.4733 20.3008 37.42C20.2075 37.3533 20.1008 37.32 19.9808 37.32C19.7675 37.32 19.5675 37.3533 19.3808 37.42C19.1942 37.4867 19.0675 37.5667 19.0008 37.66C18.7875 37.9933 18.6275 38.2933 18.5208 38.56C18.4275 38.8267 18.3808 39.1133 18.3808 39.42C18.3808 39.6467 18.3742 39.8267 18.3608 39.96L18.3408 41.1C18.3408 41.2733 18.3475 41.4667 18.3608 41.68C18.3742 41.8933 18.3875 42.0533 18.4008 42.16C18.4408 42.52 18.4608 42.8667 18.4608 43.2ZM32.5501 43.04C32.5501 43.3333 32.3901 43.58 32.0701 43.78C31.7634 43.98 31.4767 44.08 31.2101 44.08C30.7034 44.08 30.2967 44.02 29.9901 43.9C29.6967 43.7667 29.4234 43.5267 29.1701 43.18C28.8234 43.4867 28.3501 43.72 27.7501 43.88C27.1501 44.0267 26.5967 44.1 26.0901 44.1C25.2634 44.1 24.5834 43.88 24.0501 43.44C23.5167 42.9867 23.2501 42.3267 23.2501 41.46C23.2501 41.0867 23.3501 40.7467 23.5501 40.44C23.7501 40.12 24.0234 39.84 24.3701 39.6C24.7567 39.3467 25.1967 39.1533 25.6901 39.02C26.1834 38.8733 26.6967 38.8 27.2301 38.8C27.5101 38.8 27.8434 38.8533 28.2301 38.96C28.6167 39.0667 28.9167 39.18 29.1301 39.3V38.98C29.1301 38.26 28.9567 37.7667 28.6101 37.5C28.2634 37.22 27.7034 37.08 26.9301 37.08C26.7034 37.08 26.4767 37.1267 26.2501 37.22C26.0367 37.3133 25.7901 37.44 25.5101 37.6C25.1367 37.8 24.7834 37.9 24.4501 37.9C24.3301 37.9 24.2167 37.82 24.1101 37.66C24.0034 37.4867 23.9501 37.3333 23.9501 37.2C23.9501 36.8133 24.1301 36.48 24.4901 36.2C24.8634 35.92 25.3034 35.7133 25.8101 35.58C26.3167 35.4333 26.7701 35.36 27.1701 35.36C27.5701 35.36 28.0301 35.44 28.5501 35.6C29.0701 35.7467 29.4967 35.9533 29.8301 36.22C30.2301 36.5667 30.5367 36.9733 30.7501 37.44C30.9767 37.8933 31.0901 38.3933 31.0901 38.94C31.0901 39.1133 31.0767 39.3733 31.0501 39.72C31.0234 40.0933 31.0101 40.4133 31.0101 40.68C31.0101 40.8 30.9967 40.98 30.9701 41.22C30.9434 41.5133 30.9301 41.7467 30.9301 41.92C30.9301 42.08 30.9901 42.22 31.1101 42.34C31.2301 42.4467 31.3701 42.5 31.5301 42.5L32.0901 42.48C32.2367 42.48 32.3501 42.5333 32.4301 42.64C32.5101 42.7467 32.5501 42.88 32.5501 43.04ZM26.1101 42.52C26.6834 42.52 27.1634 42.46 27.5501 42.34C27.9367 42.22 28.4034 42 28.9501 41.68C29.0034 41.4533 29.0367 41.1533 29.0501 40.78C28.3167 40.4333 27.7101 40.26 27.2301 40.26C26.6834 40.26 26.1967 40.36 25.7701 40.56C25.3434 40.76 25.1301 41.1133 25.1301 41.62C25.1301 41.8733 25.2367 42.0867 25.4501 42.26C25.6634 42.4333 25.8834 42.52 26.1101 42.52ZM33.7197 36.96C33.6131 36.88 33.5264 36.8 33.4597 36.72C33.3931 36.6267 33.3597 36.4667 33.3597 36.24C33.3597 35.9867 33.4464 35.7933 33.6197 35.66C33.8064 35.5133 34.0197 35.44 34.2597 35.44C34.7264 35.44 35.1264 35.56 35.4597 35.8C35.8064 36.04 36.0597 36.3733 36.2197 36.8C36.5131 36.2533 36.8864 35.88 37.3397 35.68C37.7931 35.4667 38.4197 35.36 39.2197 35.36C39.5397 35.36 39.8664 35.46 40.1997 35.66C40.5464 35.8467 40.8597 36.08 41.1397 36.36C41.3664 36.6533 41.5597 37.02 41.7197 37.46C41.8797 37.8867 41.9597 38.2733 41.9597 38.62C41.9597 38.82 41.9464 39.1467 41.9197 39.6C41.8931 40.08 41.8797 40.46 41.8797 40.74C41.8797 41.6733 42.0597 42.2467 42.4197 42.46C42.4731 42.4867 42.5731 42.52 42.7197 42.56C42.8664 42.6 42.9731 42.64 43.0397 42.68C43.1197 42.72 43.1597 42.78 43.1597 42.86C43.1731 43.18 43.0531 43.4467 42.7997 43.66C42.5597 43.86 42.2664 43.96 41.9197 43.96C41.3997 43.96 40.9931 43.82 40.6997 43.54C40.4064 43.26 40.1997 42.8333 40.0797 42.26C40.0131 42.0467 39.9797 41.7333 39.9797 41.32C39.9797 41.0933 39.9931 40.7267 40.0197 40.22C40.0597 39.82 40.0797 39.3933 40.0797 38.94C40.0797 38.4733 39.9464 38.0667 39.6797 37.72C39.4131 37.36 39.0464 37.18 38.5797 37.18C38.2997 37.18 38.0064 37.2667 37.6997 37.44C37.3931 37.6 37.1797 37.8 37.0597 38.04C36.8597 38.4533 36.7264 38.8733 36.6597 39.3C36.4997 40.1267 36.4197 40.92 36.4197 41.68C36.4197 41.8667 36.4331 42.2267 36.4597 42.76C36.4597 42.8 36.4597 42.9 36.4597 43.06C36.4597 43.2067 36.4397 43.3467 36.3997 43.48C36.3731 43.6133 36.3197 43.7333 36.2397 43.84C36.1864 43.8933 36.0864 43.9467 35.9397 44C35.7931 44.0533 35.6664 44.08 35.5597 44.08C35.3731 44.08 35.1397 44 34.8597 43.84C34.5797 43.68 34.4131 43.5 34.3597 43.3L34.3397 43.02C34.3397 42.9133 34.3531 42.7533 34.3797 42.54C34.5397 41.6067 34.6197 40.7933 34.6197 40.1C34.6197 39.7933 34.6131 39.56 34.5997 39.4L34.5797 38.48C34.5797 38.2 34.4997 37.9333 34.3397 37.68C34.1797 37.4133 33.9731 37.1733 33.7197 36.96ZM50.2238 39.42C50.7571 39.7267 51.1305 40.0333 51.3438 40.34C51.5571 40.6333 51.6638 41.02 51.6638 41.5C51.6638 41.98 51.5238 42.4067 51.2438 42.78C50.9638 43.14 50.6038 43.42 50.1638 43.62C49.8438 43.7667 49.4438 43.88 48.9638 43.96C48.4971 44.04 48.1305 44.08 47.8638 44.08C47.3971 44.08 46.8905 43.9933 46.3438 43.82C45.7971 43.6467 45.3305 43.4 44.9438 43.08C44.5705 42.76 44.3838 42.3867 44.3838 41.96C44.3838 41.6933 44.4705 41.4867 44.6438 41.34C44.8171 41.18 45.0438 41.1 45.3238 41.1C45.5505 41.1 45.7905 41.26 46.0438 41.58C46.2971 41.86 46.5905 42.0733 46.9238 42.22C47.2705 42.3667 47.6105 42.44 47.9438 42.44C49.2105 42.44 49.8438 42.1533 49.8438 41.58C49.8438 41.46 49.8038 41.3467 49.7238 41.24C49.6438 41.12 49.5705 41.04 49.5038 41C49.3838 40.9067 49.2171 40.8267 49.0038 40.76C48.7905 40.6933 48.5771 40.64 48.3638 40.6C48.1505 40.5467 47.9905 40.5067 47.8838 40.48C47.7771 40.4533 47.5505 40.4067 47.2038 40.34C46.8705 40.2733 46.5505 40.16 46.2438 40C45.7371 39.76 45.3238 39.4667 45.0038 39.12C44.6971 38.7733 44.5438 38.3267 44.5438 37.78C44.5438 37.4733 44.6171 37.1667 44.7638 36.86C44.9238 36.54 45.1371 36.3 45.4038 36.14C45.8038 35.8867 46.2438 35.6933 46.7238 35.56C47.2038 35.4267 47.6505 35.36 48.0638 35.36C48.3971 35.36 48.7705 35.3933 49.1838 35.46C49.6105 35.5267 49.9171 35.62 50.1038 35.74C50.4505 35.9267 50.7038 36.12 50.8638 36.32C51.0238 36.52 51.1038 36.7733 51.1038 37.08C51.1038 37.2267 51.0705 37.3733 51.0038 37.52C50.9371 37.6533 50.8571 37.7467 50.7638 37.8C50.5505 37.88 50.3638 37.92 50.2038 37.92C50.0838 37.92 49.9838 37.9 49.9038 37.86C49.8238 37.8067 49.7505 37.7533 49.6838 37.7C49.6305 37.6467 49.5971 37.6133 49.5838 37.6C49.4105 37.4133 49.2171 37.2667 49.0038 37.16C48.7905 37.0533 48.4771 37 48.0638 37C47.7971 37 47.5371 37.04 47.2838 37.12C47.0438 37.1867 46.8571 37.2733 46.7238 37.38C46.6171 37.46 46.5438 37.5333 46.5038 37.6C46.4638 37.6533 46.4438 37.7267 46.4438 37.82C46.4438 38.1933 46.8171 38.4667 47.5638 38.64C48.3238 38.8133 48.7238 38.9067 48.7638 38.92C48.8438 38.9467 49.0638 39.0133 49.4238 39.12C49.7971 39.2267 50.0638 39.3267 50.2238 39.42ZM55.7877 40.9C55.7877 41.4067 55.861 41.8 56.0077 42.08C56.1677 42.3467 56.3677 42.48 56.6077 42.48C56.741 42.48 56.8677 42.4733 56.9877 42.46C57.1077 42.4333 57.2277 42.42 57.3477 42.42C57.481 42.42 57.5944 42.4867 57.6877 42.62C57.7944 42.7533 57.8477 42.9 57.8477 43.06C57.8477 43.38 57.6944 43.6333 57.3877 43.82C57.0944 43.9933 56.6944 44.08 56.1877 44.08C55.8277 44.08 55.461 43.9733 55.0877 43.76C54.7277 43.5333 54.4277 43.1867 54.1877 42.72C53.9477 42.24 53.8277 41.6467 53.8277 40.94C53.8277 39.42 53.8544 38.1333 53.9077 37.08C53.9744 35.8267 54.0077 34.2467 54.0077 32.34C54.0077 31.74 54.041 31.32 54.1077 31.08C54.1877 30.8933 54.3144 30.7533 54.4877 30.66C54.6744 30.5533 54.8677 30.5 55.0677 30.5C55.2677 30.5 55.441 30.5333 55.5877 30.6C55.7477 30.6667 55.8544 30.7733 55.9077 30.92C55.961 31.08 55.9944 31.24 56.0077 31.4C56.0344 31.5467 56.0477 31.76 56.0477 32.04C56.0477 32.5867 56.0277 33.1133 55.9877 33.62C55.961 34.2333 55.9477 34.68 55.9477 34.96C55.841 37.3067 55.7877 39.2867 55.7877 40.9ZM66.8118 44.08C66.3584 44.08 66.0118 44.0133 65.7718 43.88C65.5318 43.7333 65.2718 43.4667 64.9918 43.08C64.6451 43.3867 64.1251 43.6333 63.4318 43.82C62.7518 44.0067 62.1651 44.1 61.6718 44.1C60.8584 44.1 60.1984 43.88 59.6918 43.44C59.1984 42.9867 58.9518 42.3267 58.9518 41.46C58.9518 41.0867 59.0518 40.7467 59.2518 40.44C59.4651 40.12 59.7384 39.84 60.0718 39.6C60.4451 39.3467 60.8851 39.1467 61.3918 39C61.9118 38.8533 62.3851 38.78 62.8118 38.78C63.5318 38.78 64.1718 38.8467 64.7318 38.98V38.96C64.7318 38.24 64.5518 37.7467 64.1918 37.48C63.8451 37.2 63.2851 37.06 62.5118 37.06C62.0184 37.06 61.5918 37.28 61.2318 37.72C61.0984 37.8933 60.8184 37.98 60.3918 37.98C60.1784 37.98 60.0184 37.8933 59.9118 37.72C59.8184 37.5333 59.7718 37.3467 59.7718 37.16C59.7718 36.7733 59.9318 36.44 60.2518 36.16C60.5851 35.88 60.9851 35.6733 61.4518 35.54C61.9184 35.3933 62.3518 35.32 62.7518 35.32C63.1384 35.32 63.5984 35.4 64.1318 35.56C64.6651 35.72 65.0984 35.9333 65.4318 36.2C65.8318 36.5467 66.1384 36.9533 66.3518 37.42C66.5784 37.8733 66.6918 38.3733 66.6918 38.92C66.6918 39.0933 66.6784 39.3533 66.6518 39.7C66.6251 40.1 66.6118 40.4267 66.6118 40.68C66.6118 40.8 66.5984 40.9533 66.5718 41.14C66.5451 41.38 66.5318 41.58 66.5318 41.74C66.5318 41.9133 66.5851 42.08 66.6918 42.24C66.7984 42.4 66.9451 42.5333 67.1318 42.64C67.3051 42.7333 67.4184 42.8333 67.4718 42.94C67.5251 43.0467 67.5518 43.1667 67.5518 43.3C67.5518 43.4333 67.4651 43.6 67.2918 43.8C67.1318 43.9867 66.9718 44.08 66.8118 44.08ZM62.8118 40.26C62.2918 40.26 61.8318 40.36 61.4318 40.56C61.0318 40.76 60.8318 41.1133 60.8318 41.62C60.8318 41.8733 60.9184 42.0867 61.0918 42.26C61.2784 42.4333 61.4784 42.52 61.6918 42.52C62.2651 42.52 62.7451 42.46 63.1318 42.34C63.5184 42.22 63.9851 42 64.5318 41.68C64.5984 41.4667 64.6384 41.1667 64.6518 40.78C64.6518 40.6333 64.6584 40.52 64.6718 40.44C63.9518 40.32 63.3318 40.26 62.8118 40.26ZM69.0555 37.04C68.8689 37.0133 68.7155 36.94 68.5955 36.82C68.4889 36.6867 68.4355 36.5267 68.4355 36.34C68.4355 36.1 68.5289 35.9 68.7155 35.74C68.7555 35.7 68.8222 35.6667 68.9155 35.64C69.0089 35.6 69.0822 35.5667 69.1355 35.54C69.4289 35.4467 69.6155 35.3733 69.6955 35.32C70.0022 35.1333 70.2089 34.8267 70.3155 34.4C70.4222 33.8933 70.4889 33.5467 70.5155 33.36C70.5422 33.0667 70.6355 32.8467 70.7955 32.7C70.9689 32.54 71.1822 32.46 71.4355 32.46C71.7689 32.46 72.0022 32.5467 72.1355 32.72C72.2689 32.8933 72.3355 33.2133 72.3355 33.68C72.3355 34.2933 72.1889 34.8733 71.8955 35.42C72.0822 35.42 72.3889 35.4067 72.8155 35.38C73.4555 35.3533 73.9022 35.34 74.1555 35.34C74.3822 35.34 74.5755 35.4 74.7355 35.52C74.9089 35.6267 74.9955 35.7867 74.9955 36C74.9955 36.5067 74.7622 36.8067 74.2955 36.9C73.8689 37.02 73.0955 37.0933 71.9755 37.12C71.8822 38.4267 71.8355 39.46 71.8355 40.22C71.8355 40.6867 71.8555 41.02 71.8955 41.22C71.9755 41.6333 72.1089 41.94 72.2955 42.14C72.4955 42.3267 72.7889 42.42 73.1755 42.42C73.3622 42.42 73.6422 42.3733 74.0155 42.28C74.2422 42.2133 74.4222 42.18 74.5555 42.18C74.7289 42.18 74.8622 42.24 74.9555 42.36C75.0489 42.48 75.0955 42.64 75.0955 42.84C75.0955 43.2 74.8622 43.5 74.3955 43.74C73.9289 43.9667 73.3755 44.08 72.7355 44.08C72.3355 44.08 71.9422 43.9867 71.5555 43.8C71.1689 43.6 70.8422 43.36 70.5755 43.08C70.5222 43.0533 70.4422 42.9067 70.3355 42.64C70.2422 42.3733 70.1489 42.08 70.0555 41.76C70.0155 41.6 69.9955 41.2133 69.9955 40.6C69.9955 40.0133 70.0355 39 70.1155 37.56L70.1355 37.12C70.0422 37.12 69.8689 37.1133 69.6155 37.1C69.3622 37.0733 69.1755 37.0533 69.0555 37.04ZM84.416 37.58C84.5227 37.7667 84.6093 38.04 84.676 38.4C84.7427 38.7467 84.776 39.06 84.776 39.34C84.776 39.7133 84.716 40.18 84.596 40.74C84.476 41.2867 84.376 41.6533 84.296 41.84C83.576 43.3333 82.1893 44.08 80.136 44.08C79.4827 44.08 78.8427 43.8667 78.216 43.44C77.5893 43 77.1427 42.4867 76.876 41.9L76.736 41.5C76.7227 41.4467 76.6493 41.2467 76.516 40.9C76.396 40.54 76.336 40.2667 76.336 40.08C76.336 39.5333 76.4693 38.9 76.736 38.18C77.0027 37.46 77.3093 36.8867 77.656 36.46C77.8827 36.1533 78.316 35.8933 78.956 35.68C79.596 35.4533 80.1627 35.34 80.656 35.34C81.576 35.34 82.316 35.5133 82.876 35.86C83.4493 36.2067 83.9627 36.78 84.416 37.58ZM82.576 40.8C82.6293 40.7067 82.676 40.54 82.716 40.3C82.756 40.06 82.776 39.78 82.776 39.46C82.776 39.0733 82.7027 38.6933 82.556 38.32C82.4227 37.9467 82.2227 37.6267 81.956 37.36C81.9427 37.3333 81.896 37.2933 81.816 37.24C81.736 37.1733 81.6093 37.1133 81.436 37.06C81.2627 36.9933 81.0427 36.96 80.776 36.96C80.256 36.96 79.816 37.1133 79.456 37.42C79.096 37.7267 78.8227 38.1067 78.636 38.56C78.4627 39.0133 78.376 39.46 78.376 39.9C78.376 40.02 78.416 40.2667 78.496 40.64C78.576 41.0133 78.636 41.2533 78.676 41.36C78.7827 41.5467 78.9893 41.7667 79.296 42.02C79.6027 42.26 79.9493 42.38 80.336 42.38C80.936 42.38 81.4027 42.24 81.736 41.96C82.0827 41.68 82.3627 41.2933 82.576 40.8ZM89.4722 43.2C89.4456 43.4267 89.3522 43.6267 89.1922 43.8C89.0322 43.9733 88.8256 44.06 88.5722 44.06C88.1722 44.06 87.8789 43.9867 87.6922 43.84C87.5056 43.68 87.4122 43.3933 87.4122 42.98C87.4122 42.42 87.4456 41.8067 87.5122 41.14C87.5656 40.3667 87.5922 39.7733 87.5922 39.36C87.5922 39.1467 87.5789 38.88 87.5522 38.56C87.5256 38.2667 87.5122 38.0467 87.5122 37.9C87.4722 37.6733 87.3789 37.4933 87.2322 37.36C87.0989 37.2267 86.8856 37.1133 86.5922 37.02C86.4722 36.9667 86.3722 36.88 86.2922 36.76C86.2122 36.6267 86.1722 36.5067 86.1722 36.4C86.1722 36.0933 86.2922 35.86 86.5322 35.7C86.7722 35.54 87.0656 35.46 87.4122 35.46C87.7989 35.46 88.1322 35.5933 88.4122 35.86C88.6922 36.1267 88.9056 36.46 89.0522 36.86C89.3589 36.42 89.7322 36.0667 90.1722 35.8C90.6256 35.5333 91.0656 35.4 91.4922 35.4C92.0389 35.4 92.4989 35.4933 92.8722 35.68C93.2589 35.8533 93.4522 36.16 93.4522 36.6C93.4522 36.8533 93.3389 37.12 93.1122 37.4C92.8989 37.6667 92.6789 37.8 92.4522 37.8C92.2789 37.8 92.0722 37.72 91.8322 37.56C91.7389 37.4933 91.6322 37.44 91.5122 37.4C91.4056 37.3467 91.2922 37.32 91.1722 37.32C90.9589 37.32 90.7589 37.3533 90.5722 37.42C90.3856 37.4867 90.2589 37.5667 90.1922 37.66C89.9789 37.9933 89.8189 38.2933 89.7122 38.56C89.6189 38.8267 89.5722 39.1133 89.5722 39.42C89.5722 39.6467 89.5656 39.8267 89.5522 39.96L89.5322 41.1L89.5522 41.86C89.5522 42.42 89.5256 42.8667 89.4722 43.2ZM105.554 31.16C105.767 31.16 105.94 31.22 106.074 31.34C106.207 31.4467 106.274 31.58 106.274 31.74C106.274 31.8867 106.24 32.02 106.174 32.14C105.734 32.8333 105.354 33.48 105.034 34.08C104.714 34.68 104.314 35.46 103.834 36.42C103.647 36.7933 103.347 37.3867 102.934 38.2C102.734 38.5867 102.447 39.22 102.074 40.1C101.527 41.3267 101.08 42.26 100.734 42.9C100.32 43.7 99.847 44.1 99.3137 44.1C98.6337 44.1 98.2937 43.86 98.2937 43.38C98.2937 43.1933 98.3537 43.02 98.4737 42.86C99.1937 41.8067 99.807 40.7867 100.314 39.8C100.834 38.8 101.394 37.6333 101.994 36.3C102.674 34.78 103.247 33.5933 103.714 32.74C103.94 32.2867 104.18 31.9133 104.434 31.62C104.7 31.3133 105.074 31.16 105.554 31.16ZM113.972 31.16C114.185 31.16 114.358 31.22 114.492 31.34C114.625 31.4467 114.692 31.58 114.692 31.74C114.692 31.8867 114.658 32.02 114.592 32.14C114.152 32.8333 113.772 33.48 113.452 34.08C113.132 34.68 112.732 35.46 112.252 36.42C112.065 36.7933 111.765 37.3867 111.352 38.2C111.152 38.5867 110.865 39.22 110.492 40.1C109.945 41.3267 109.498 42.26 109.152 42.9C108.738 43.7 108.265 44.1 107.732 44.1C107.052 44.1 106.712 43.86 106.712 43.38C106.712 43.1933 106.772 43.02 106.892 42.86C107.612 41.8067 108.225 40.7867 108.732 39.8C109.252 38.8 109.812 37.6333 110.412 36.3C111.092 34.78 111.665 33.5933 112.132 32.74C112.358 32.2867 112.598 31.9133 112.852 31.62C113.118 31.3133 113.492 31.16 113.972 31.16ZM123.098 39.464C122.474 39.464 121.966 39.644 121.574 40.004C121.19 40.356 120.998 40.852 120.998 41.492C120.998 41.756 121.066 42.108 121.202 42.548C121.362 42.268 121.498 41.976 121.61 41.672C121.714 41.424 121.798 41.244 121.862 41.132C121.926 41.012 122.01 40.908 122.114 40.82C122.218 40.74 122.35 40.672 122.51 40.616C122.678 40.552 122.826 40.52 122.954 40.52C123.306 40.528 123.594 40.636 123.818 40.844C124.05 41.044 124.166 41.3 124.166 41.612C124.166 41.956 124.05 42.244 123.818 42.476C123.594 42.7 123.33 42.812 123.026 42.812C122.85 42.812 122.706 42.792 122.594 42.752C122.482 42.712 122.37 42.64 122.258 42.536C122.162 42.688 122.086 42.796 122.03 42.86C121.926 42.996 121.85 43.12 121.802 43.232C121.754 43.336 121.71 43.492 121.67 43.7C121.646 43.86 121.566 43.964 121.43 44.012C121.294 44.06 121.166 44.084 121.046 44.084C120.886 44.084 120.742 44.052 120.614 43.988C120.494 43.916 120.434 43.824 120.434 43.712C120.434 43.528 120.418 43.36 120.386 43.208C120.354 43.048 120.302 42.856 120.23 42.632C120.15 42.392 120.09 42.172 120.05 41.972C120.01 41.764 119.99 41.532 119.99 41.276C119.99 40.388 120.266 39.704 120.818 39.224C121.378 38.744 122.146 38.504 123.122 38.504C124.202 38.504 124.958 38.788 125.39 39.356C125.83 39.924 126.05 40.728 126.05 41.768C126.05 42.528 126.046 42.988 126.038 43.148C125.998 43.516 125.93 43.764 125.834 43.892C125.738 44.012 125.602 44.072 125.426 44.072C125.25 44.072 125.098 44.024 124.97 43.928C124.85 43.824 124.79 43.684 124.79 43.508C124.79 43.404 124.814 43.168 124.862 42.8C124.934 42.232 124.966 41.808 124.958 41.528C124.918 40.856 124.758 40.344 124.478 39.992C124.198 39.64 123.738 39.464 123.098 39.464ZM123.482 41.672C123.482 41.512 123.434 41.396 123.338 41.324C123.25 41.252 123.138 41.216 123.002 41.216C122.826 41.216 122.686 41.256 122.582 41.336C122.486 41.416 122.438 41.536 122.438 41.696C122.438 41.864 122.49 41.988 122.594 42.068C122.698 42.14 122.83 42.176 122.99 42.176C123.134 42.176 123.25 42.132 123.338 42.044C123.434 41.956 123.482 41.832 123.482 41.672ZM125.235 35.612C125.611 35.62 125.923 35.724 126.171 35.924C126.419 36.124 126.543 36.38 126.543 36.692C126.543 37.092 126.447 37.376 126.255 37.544C126.143 37.64 126.003 37.716 125.835 37.772C125.659 37.828 125.487 37.856 125.319 37.856C124.935 37.856 124.611 37.756 124.347 37.556C124.075 37.348 123.939 37.08 123.939 36.752C123.939 36.424 124.055 36.152 124.287 35.936C124.383 35.84 124.527 35.764 124.719 35.708C124.903 35.644 125.075 35.612 125.235 35.612ZM125.295 37.196C125.607 37.196 125.763 37.044 125.763 36.74C125.763 36.596 125.719 36.484 125.631 36.404C125.543 36.324 125.435 36.284 125.307 36.284C125.115 36.284 124.967 36.328 124.863 36.416C124.759 36.496 124.707 36.616 124.707 36.776C124.707 36.92 124.763 37.028 124.875 37.1C124.987 37.164 125.127 37.196 125.295 37.196ZM128.787 39.632C128.659 39.632 128.539 39.644 128.427 39.668C128.323 39.684 128.207 39.728 128.079 39.8C127.975 39.856 127.875 39.916 127.779 39.98C127.699 40.036 127.623 40.084 127.551 40.124C127.479 40.156 127.411 40.172 127.347 40.172C127.251 40.172 127.155 40.132 127.059 40.052C126.963 39.964 126.915 39.856 126.915 39.728C126.915 39.504 127.023 39.3 127.239 39.116C127.455 38.924 127.715 38.776 128.019 38.672C128.323 38.56 128.591 38.504 128.823 38.504C129.583 38.504 130.135 38.748 130.479 39.236C130.831 39.724 131.019 40.364 131.043 41.156C131.075 42.132 131.091 42.884 131.091 43.412C131.091 43.66 131.035 43.848 130.923 43.976C130.811 44.096 130.631 44.156 130.383 44.156C130.231 44.156 130.103 44.1 129.999 43.988C129.895 43.876 129.843 43.748 129.843 43.604C129.843 43.204 129.855 42.82 129.879 42.452C129.895 41.972 129.903 41.596 129.903 41.324C129.903 40.196 129.531 39.632 128.787 39.632ZM132.735 39.356C132.767 39.068 132.831 38.856 132.927 38.72C133.031 38.576 133.175 38.504 133.359 38.504C133.567 38.504 133.699 38.564 133.755 38.684C133.811 38.796 133.839 38.936 133.839 39.104C133.839 39.28 133.827 39.544 133.803 39.896C133.763 40.68 133.739 41.204 133.731 41.468C133.763 41.452 133.839 41.428 133.959 41.396C134.087 41.364 134.215 41.348 134.343 41.348C134.671 41.348 134.943 41.484 135.159 41.756C135.383 42.02 135.495 42.324 135.495 42.668C135.495 42.916 135.423 43.144 135.279 43.352C135.135 43.552 134.947 43.712 134.715 43.832C134.491 43.944 134.255 44 134.007 44C133.607 44 133.279 43.864 133.023 43.592C132.775 43.312 132.651 42.952 132.651 42.512C132.651 40.864 132.679 39.812 132.735 39.356ZM134.127 43.268C134.327 43.268 134.471 43.204 134.559 43.076C134.655 42.948 134.703 42.82 134.703 42.692C134.703 42.54 134.651 42.4 134.547 42.272C134.443 42.144 134.311 42.08 134.151 42.08C134.015 42.08 133.879 42.128 133.743 42.224C133.615 42.312 133.551 42.424 133.551 42.56C133.551 42.784 133.599 42.96 133.695 43.088C133.791 43.208 133.935 43.268 134.127 43.268ZM141.691 38.54C141.851 38.54 141.979 38.588 142.075 38.684C142.179 38.78 142.231 38.892 142.231 39.02C142.231 39.3 142.215 39.776 142.183 40.448C142.143 41.504 142.123 42.26 142.123 42.716C142.123 43.116 142.011 43.44 141.787 43.688C141.571 43.936 141.255 44.06 140.839 44.06C140.575 44.06 140.359 44.008 140.191 43.904C140.023 43.8 139.815 43.632 139.567 43.4C139.415 43.232 139.247 43.08 139.063 42.944C138.999 43.28 138.823 43.552 138.535 43.76C138.255 43.96 137.947 44.06 137.611 44.06C137.219 44.06 136.895 43.948 136.639 43.724C136.391 43.492 136.267 43.208 136.267 42.872C136.267 42.456 136.407 42.128 136.687 41.888C136.975 41.64 137.335 41.516 137.767 41.516C137.911 41.516 138.087 41.544 138.295 41.6C138.311 41.528 138.311 41.416 138.295 41.264C138.279 41.104 138.255 40.988 138.223 40.916C137.967 41.02 137.779 41.072 137.659 41.072C137.219 41.072 136.875 40.956 136.627 40.724C136.379 40.484 136.255 40.136 136.255 39.68C136.255 39.32 136.395 39.04 136.675 38.84C136.955 38.64 137.263 38.54 137.599 38.54C137.935 38.54 138.187 38.58 138.355 38.66C138.523 38.74 138.695 38.892 138.871 39.116C138.967 39.252 139.063 39.476 139.159 39.788C139.263 40.1 139.315 40.384 139.315 40.64L139.327 41.264C139.327 41.544 139.315 41.752 139.291 41.888C139.387 41.968 139.579 42.152 139.867 42.44C140.051 42.64 140.203 42.788 140.323 42.884C140.443 42.972 140.567 43.016 140.695 43.016C140.799 43.016 140.883 42.924 140.947 42.74C141.019 42.556 141.055 42.324 141.055 42.044C141.055 41.316 141.039 40.568 141.007 39.8L140.995 39.272C140.995 38.976 141.047 38.78 141.151 38.684C141.255 38.588 141.435 38.54 141.691 38.54ZM137.563 39.296C137.395 39.296 137.263 39.348 137.167 39.452C137.079 39.556 137.035 39.668 137.035 39.788C137.035 39.956 137.087 40.096 137.191 40.208C137.295 40.32 137.419 40.376 137.563 40.376C137.939 40.376 138.127 40.196 138.127 39.836C138.127 39.476 137.939 39.296 137.563 39.296ZM137.575 43.28C137.791 43.28 137.959 43.196 138.079 43.028C138.199 42.852 138.259 42.64 138.259 42.392C138.227 42.376 138.155 42.352 138.043 42.32C137.939 42.28 137.831 42.26 137.719 42.26C137.567 42.26 137.419 42.308 137.275 42.404C137.131 42.5 137.059 42.616 137.059 42.752C137.059 42.92 137.103 43.052 137.191 43.148C137.287 43.236 137.415 43.28 137.575 43.28ZM141.923 35.336C142.075 35.336 142.167 35.372 142.199 35.444C142.231 35.516 142.247 35.636 142.247 35.804L142.211 37.4C142.211 37.528 142.183 37.628 142.127 37.7C142.071 37.772 141.991 37.808 141.887 37.808C141.823 37.808 141.747 37.804 141.659 37.796C141.571 37.78 141.503 37.768 141.455 37.76L140.999 37.688C140.631 37.624 140.311 37.576 140.039 37.544C139.767 37.512 139.487 37.496 139.199 37.496C138.831 37.496 138.511 37.512 138.239 37.544C137.967 37.568 137.795 37.584 137.723 37.592C137.635 37.6 137.555 37.608 137.483 37.616C137.411 37.624 137.351 37.628 137.303 37.628C137.175 37.628 137.091 37.576 137.051 37.472C137.003 37.36 136.979 37.248 136.979 37.136C136.979 37.016 137.071 36.824 137.255 36.56C137.439 36.296 137.711 36.06 138.071 35.852C138.431 35.644 138.859 35.54 139.355 35.54C139.579 35.54 139.767 35.572 139.919 35.636C140.071 35.7 140.215 35.804 140.351 35.948C140.351 35.668 140.383 35.488 140.447 35.408C140.503 35.32 140.591 35.276 140.711 35.276C140.871 35.276 140.975 35.324 141.023 35.42C141.071 35.508 141.095 35.632 141.095 35.792C141.095 36.168 141.091 36.404 141.083 36.5C141.339 36.724 141.499 36.868 141.563 36.932L141.551 35.72C141.551 35.584 141.575 35.488 141.623 35.432C141.663 35.368 141.763 35.336 141.923 35.336ZM139.055 36.812C139.351 36.812 139.899 36.888 140.699 37.04C140.491 36.784 140.255 36.584 139.991 36.44C139.727 36.296 139.475 36.224 139.235 36.224C138.987 36.224 138.759 36.292 138.551 36.428C138.343 36.556 138.171 36.712 138.035 36.896C138.435 36.84 138.775 36.812 139.055 36.812ZM147.971 39.224C148.211 39.456 148.399 39.764 148.535 40.148C148.671 40.524 148.739 40.884 148.739 41.228C148.739 42.092 148.499 42.788 148.019 43.316C147.539 43.836 146.863 44.096 145.991 44.096C145.567 44.096 145.187 44.04 144.851 43.928C144.523 43.808 144.239 43.6 143.999 43.304C143.863 43.144 143.755 42.944 143.675 42.704C143.603 42.464 143.567 42.212 143.567 41.948C143.567 41.7 143.635 41.464 143.771 41.24C143.907 41.016 144.091 40.84 144.323 40.712C144.555 40.576 144.799 40.508 145.055 40.508C145.351 40.508 145.615 40.604 145.847 40.796C146.087 40.98 146.207 41.22 146.207 41.516C146.207 41.804 146.107 42.072 145.907 42.32C145.707 42.56 145.463 42.68 145.175 42.68C145.007 42.68 144.855 42.66 144.719 42.62C144.823 42.828 144.995 42.976 145.235 43.064C145.483 43.144 145.735 43.184 145.991 43.184C146.207 43.184 146.423 43.136 146.639 43.04C146.863 42.936 147.043 42.804 147.179 42.644C147.323 42.468 147.419 42.264 147.467 42.032C147.523 41.8 147.551 41.528 147.551 41.216C147.551 41 147.515 40.8 147.443 40.616C147.371 40.432 147.255 40.228 147.095 40.004C147.015 39.884 146.851 39.78 146.603 39.692C146.363 39.596 146.159 39.548 145.991 39.548C145.807 39.548 145.591 39.58 145.343 39.644C145.103 39.7 144.915 39.776 144.779 39.872C144.603 39.992 144.475 40.076 144.395 40.124C144.315 40.172 144.223 40.196 144.119 40.196C143.983 40.196 143.871 40.148 143.783 40.052C143.703 39.956 143.663 39.836 143.663 39.692C143.663 39.476 143.747 39.304 143.915 39.176C144.091 39.04 144.343 38.892 144.671 38.732C144.975 38.58 145.379 38.504 145.883 38.504C146.395 38.504 146.799 38.556 147.095 38.66C147.391 38.756 147.683 38.944 147.971 39.224ZM145.499 41.6C145.499 41.296 145.351 41.144 145.055 41.144C144.895 41.144 144.771 41.192 144.683 41.288C144.595 41.384 144.551 41.516 144.551 41.684C144.551 41.804 144.599 41.904 144.695 41.984C144.791 42.056 144.899 42.092 145.019 42.092C145.147 42.092 145.259 42.044 145.355 41.948C145.451 41.852 145.499 41.736 145.499 41.6ZM152.762 41.42C152.762 41.364 152.754 41.284 152.738 41.18C152.722 41.068 152.698 40.98 152.666 40.916C152.466 41.012 152.214 41.06 151.91 41.06C151.702 41.06 151.502 41 151.31 40.88C151.118 40.76 150.962 40.596 150.842 40.388C150.722 40.18 150.662 39.952 150.662 39.704C150.662 39.504 150.73 39.316 150.866 39.14C151.002 38.956 151.174 38.812 151.382 38.708C151.598 38.604 151.81 38.552 152.018 38.552C152.65 38.552 153.118 38.808 153.422 39.32C153.734 39.832 153.89 40.508 153.89 41.348C153.89 41.852 153.862 42.292 153.806 42.668C153.75 43.036 153.634 43.36 153.458 43.64C153.33 43.848 153.186 43.988 153.026 44.06C152.866 44.132 152.658 44.168 152.402 44.168C152.234 44.168 152.09 44.144 151.97 44.096C151.85 44.056 151.754 43.976 151.682 43.856C151.354 43.36 150.962 43.044 150.506 42.908C150.458 42.892 150.35 42.864 150.182 42.824C150.014 42.776 149.89 42.708 149.81 42.62C149.73 42.532 149.69 42.416 149.69 42.272C149.69 42.08 149.754 41.936 149.882 41.84C150.01 41.744 150.166 41.696 150.35 41.696C150.71 41.696 151.094 41.844 151.502 42.14C151.91 42.436 152.23 42.76 152.462 43.112C152.662 42.664 152.762 42.1 152.762 41.42ZM152.03 40.352C152.198 40.352 152.334 40.312 152.438 40.232C152.542 40.144 152.594 40.032 152.594 39.896C152.594 39.72 152.55 39.58 152.462 39.476C152.374 39.364 152.234 39.308 152.042 39.308C151.882 39.308 151.75 39.356 151.646 39.452C151.542 39.54 151.49 39.656 151.49 39.8C151.49 39.944 151.542 40.072 151.646 40.184C151.758 40.296 151.886 40.352 152.03 40.352Z" fill="black"/>
</g>
<defs>
<filter id="filter0_d_195_2" x="0.895214" y="30.5" width="156.995" height="21.668" filterUnits="userSpaceOnUse" color-interpolation-filters="sRGB">
<feFlood flood-opacity="0" result="BackgroundImageFix"/>
<feColorMatrix in="SourceAlpha" type="matrix" values="0 0 0 0 0 0 0 0 0 0 0 0 0 0 0 0 0 0 127 0" result="hardAlpha"/>
<feOffset dy="4"/>
<feGaussianBlur stdDeviation="2"/>
<feComposite in2="hardAlpha" operator="out"/>
<feColorMatrix type="matrix" values="0 0 0 0 0 0 0 0 0 0 0 0 0 0 0 0 0 0 0.25 0"/>
<feBlend mode="normal" in2="BackgroundImageFix" result="effect1_dropShadow_195_2"/>
<feBlend mode="normal" in="SourceGraphic" in2="effect1_dropShadow_195_2" result="shape"/>
</filter>
</defs>
</svg>
